<?xml version="1.0" standalone="no"?>
<!DOCTYPE svg PUBLIC "-//W3C//DTD SVG 20010904//EN"
 "http://www.w3.org/TR/2001/REC-SVG-20010904/DTD/svg10.dtd">
<svg version="1.0" xmlns="http://www.w3.org/2000/svg"
 width="1024.000000pt" height="1024.000000pt" viewBox="0 0 1024.000000 1024.000000"
 preserveAspectRatio="xMidYMid meet">

<g transform="translate(0.000000,1024.000000) scale(0.100000,-0.100000)"
fill="#000000" stroke="none">
<path d="M2547 7810 c-62 -12 -56 -22 8 -15 33 4 94 10 135 15 l75 7 -90 0
c-49 1 -107 -3 -128 -7z"/>
<path d="M7355 7805 l-40 -13 50 6 c28 4 103 7 167 7 65 0 110 3 100 7 -31 12
-235 7 -277 -7z"/>
<path d="M7429 7786 c-3 -3 -43 -6 -90 -7 -72 -2 -94 -7 -154 -35 -121 -56
-256 -186 -314 -301 -32 -65 -55 -211 -55 -363 -1 -127 1 -138 27 -194 31 -67
117 -177 186 -238 57 -50 217 -131 302 -153 130 -33 127 -31 133 -99 3 -34 7
-199 8 -368 l3 -308 65 0 65 0 -3 326 c-2 180 -1 351 3 379 l6 53 65 12 c127
24 294 130 360 228 51 77 132 271 144 347 48 293 -186 652 -460 708 -53 11
-283 21 -291 13z"/>
<path d="M2495 7770 c-106 -13 -139 -24 -213 -71 -104 -68 -202 -172 -245
-259 -88 -179 -88 -413 -2 -580 33 -64 135 -187 188 -228 60 -47 224 -127 281
-137 20 -4 42 -13 49 -19 9 -9 12 -110 12 -391 l0 -379 -65 -16 c-97 -24 -166
-65 -248 -144 -105 -101 -137 -168 -152 -319 -22 -223 56 -384 238 -490 105
-62 172 -80 289 -78 153 2 241 39 339 143 120 126 163 212 171 343 6 99 -8
180 -48 265 -52 113 -184 225 -307 261 l-43 12 3 326 c1 179 3 358 6 397 l3
70 82 16 c108 21 209 78 278 159 l52 59 28 -21 c16 -11 33 -17 39 -14 5 3 10
1 10 -5 0 -6 5 -8 10 -5 6 3 10 1 10 -4 0 -6 6 -10 13 -8 6 1 11 -4 9 -11 -1
-8 2 -11 7 -8 13 8 42 -4 35 -15 -3 -5 3 -9 13 -10 10 0 26 -2 36 -4 23 -4 50
34 35 52 -6 7 -7 13 -2 13 5 0 -2 7 -14 16 -18 12 -20 19 -12 29 13 16 -3 55
-22 55 -7 0 -6 -6 2 -17 7 -10 -5 2 -28 27 -40 44 -51 76 -33 95 13 14 41 186
42 254 1 67 17 117 19 61 1 -19 5 -46 10 -60 6 -21 7 -18 8 17 0 22 2 46 6 51
3 6 0 12 -6 14 -8 3 -13 22 -12 54 1 27 -2 41 -5 32 -6 -18 -15 -2 -57 102
-30 74 -77 142 -148 213 -125 125 -209 156 -441 162 -82 2 -181 0 -220 -5z
m219 -1910 c-4 -69 -10 -107 -14 -95 -7 19 -8 18 -12 -5 -5 -21 -3 155 3 504
1 48 5 73 10 65 6 -9 10 4 11 36 1 28 4 -49 6 -170 2 -121 0 -272 -4 -335z"/>
<path d="M9650 5210 c0 -5 5 -10 11 -10 5 0 7 5 4 10 -3 6 -8 10 -11 10 -2 0
-4 -4 -4 -10z"/>
<path d="M9650 4973 c-1 -104 -3 -240 -5 -303 -2 -63 -6 -351 -9 -640 -7 -586
-14 -866 -26 -955 -4 -36 -8 75 -9 285 0 190 -3 372 -5 405 -3 33 -7 123 -11
200 -7 148 -11 179 -25 170 -5 -3 -11 -1 -15 5 -3 5 1 10 9 10 9 0 16 4 16 10
0 5 -6 7 -14 4 -7 -3 -20 2 -29 10 -9 9 -20 16 -26 16 -5 0 -17 7 -26 16 -15
15 -17 15 -29 -1 -8 -11 -28 -19 -50 -20 -21 -1 -43 -8 -49 -15 -9 -10 -9 -12
4 -7 12 4 16 -1 15 -16 -1 -27 -22 -33 -29 -7 -3 11 -12 20 -21 20 -19 0 -21
-11 -3 -29 10 -10 5 -12 -26 -7 -32 5 -40 3 -44 -12 -3 -14 -11 -18 -30 -14
-16 3 -24 1 -20 -5 4 -6 1 -11 -6 -10 -44 1 -57 -4 -57 -24 0 -11 -4 -17 -10
-14 -5 3 -10 15 -10 25 0 32 -20 33 -26 1 -4 -17 -11 -28 -16 -25 -6 4 -15 0
-20 -7 -7 -10 -8 -5 -4 16 l6 30 -15 -27 c-19 -33 -75 -41 -75 -10 0 13 -2 14
-9 4 -10 -16 -58 -42 -77 -42 -8 0 -14 -6 -14 -14 0 -13 -4 -13 -27 -1 -19 10
-29 11 -34 4 -5 -8 -9 -8 -13 0 -4 6 -17 11 -29 11 -16 0 -18 -3 -8 -9 17 -11
1 -21 -25 -16 -10 2 -21 4 -24 4 -3 1 2 6 10 11 13 8 12 10 -2 10 -10 0 -18
-7 -18 -15 0 -8 -3 -15 -7 -15 -15 1 -38 25 -38 39 0 8 -6 16 -12 19 -7 2 -13
-3 -13 -12 0 -10 -9 -16 -25 -16 -14 0 -25 4 -25 10 0 5 -7 7 -15 4 -9 -4 -15
0 -15 10 0 9 -4 16 -10 16 -5 0 -10 -9 -10 -19 0 -14 -5 -18 -20 -14 -11 3
-20 12 -20 20 0 8 -5 11 -10 8 -6 -4 -8 -15 -5 -26 4 -11 2 -19 -4 -19 -6 0
-11 6 -11 13 0 6 -11 17 -25 24 -14 6 -25 7 -25 2 0 -5 -4 -9 -10 -9 -5 0 -10
6 -10 14 0 16 -51 17 -62 1 -4 -5 -8 0 -8 13 0 12 -5 22 -11 22 -6 0 -9 -9 -6
-20 6 -23 -11 -27 -19 -5 -4 8 -11 15 -18 15 -6 0 -23 7 -38 14 -16 8 -28 11
-28 5 0 -5 5 -9 11 -9 5 0 7 -5 4 -10 -8 -13 -57 -2 -71 16 -6 8 -18 14 -26
14 -9 0 -18 9 -21 20 -4 16 -14 20 -44 20 -27 0 -40 4 -40 14 0 8 8 11 20 8
20 -5 20 -5 1 15 -17 18 -20 18 -31 5 -7 -8 -10 -18 -8 -23 3 -4 1 -11 -5 -14
-6 -4 -10 -3 -9 2 5 20 -24 61 -39 56 -12 -5 -14 -1 -9 16 4 18 2 21 -21 19
-24 -3 -26 1 -29 36 -4 43 -13 59 -20 38 -4 -10 -8 -8 -18 5 -9 12 -10 22 -3
30 15 19 -9 53 -37 53 -19 0 -25 5 -25 23 0 18 -2 19 -10 7 -7 -11 -10 -7 -10
18 0 23 4 31 13 27 6 -4 4 0 -5 8 -23 18 -35 101 -19 121 8 10 10 24 5 38 -4
13 -7 26 -6 31 1 4 -15 0 -35 -9 -21 -9 -50 -19 -65 -22 l-28 -4 0 -403 0
-402 76 -21 c161 -44 347 -196 426 -347 105 -203 116 -435 28 -623 -79 -169
-198 -289 -363 -368 -215 -102 -471 -80 -686 60 -96 62 -150 113 -203 194 -43
65 -98 186 -98 217 0 22 -36 19 -174 -15 -128 -31 -420 -83 -546 -96 -62 -7
-69 -9 -40 -14 29 -4 18 -8 -65 -23 -55 -9 -122 -19 -150 -20 l-50 -3 -12 -73
c-7 -42 -28 -108 -50 -154 -147 -314 -435 -469 -773 -417 -101 16 -269 102
-351 182 -118 113 -189 248 -205 388 -4 33 -10 62 -13 64 -4 3 -49 9 -101 15
-108 13 -163 21 -169 26 -2 2 12 8 30 12 27 7 13 11 -87 21 -147 16 -363 55
-512 93 -62 16 -128 29 -145 29 -31 0 -33 -4 -60 -74 -71 -190 -257 -372 -447
-436 -85 -29 -195 -43 -275 -37 -179 15 -402 135 -504 269 -141 187 -194 463
-127 662 15 43 33 88 41 100 8 11 15 29 15 39 0 10 4 15 10 12 6 -4 7 1 3 11
-4 11 -2 15 4 11 6 -4 18 6 27 21 17 26 17 26 -1 7 -22 -25 -55 -32 -47 -11 3
8 1 23 -5 33 -6 10 -11 12 -11 6 0 -7 -7 -13 -15 -13 -8 0 -15 -4 -15 -10 0
-14 13 -13 28 2 9 9 12 9 12 0 0 -19 -48 -34 -70 -22 -13 7 -20 6 -23 -3 -4
-7 -6 -6 -6 4 -1 12 -8 15 -27 11 -23 -4 -25 -2 -19 17 4 12 2 21 -4 21 -6 0
-11 -10 -11 -22 l-1 -23 -18 23 c-11 12 -29 22 -40 22 -12 0 -29 9 -38 20 -9
11 -20 16 -23 11 -8 -13 -69 -21 -75 -11 -3 6 -14 10 -23 10 -15 0 -15 -2 -2
-11 13 -9 13 -10 0 -6 -8 2 -15 8 -16 13 -2 21 -17 43 -26 38 -5 -3 -4 -11 3
-20 16 -20 -19 -19 -49 2 -12 8 -22 11 -22 5 0 -10 -16 -10 -172 4 -68 6 -88
5 -88 -5 0 -9 -4 -10 -13 -2 -7 6 -36 9 -65 7 -35 -2 -52 0 -52 8 0 7 -7 4
-14 -5 -19 -25 -27 -22 -24 8 2 16 -3 29 -11 32 -9 3 -11 -1 -6 -17 5 -15 2
-21 -9 -21 -9 0 -16 7 -16 15 0 8 -9 15 -19 15 -11 0 -26 7 -35 15 -9 9 -17
11 -21 5 -3 -5 -13 -10 -21 -10 -11 0 -13 6 -9 20 6 18 2 20 -25 18 -20 -2
-35 3 -41 13 -4 9 -35 22 -69 29 -33 7 -60 17 -60 22 0 6 7 8 15 4 9 -3 15 0
15 8 0 8 6 16 13 19 6 2 9 8 5 12 -4 4 -14 3 -21 -4 -11 -8 -27 -8 -68 2 -30
8 -47 17 -38 20 11 4 10 6 -3 6 -10 1 -18 8 -18 16 0 8 -5 15 -11 15 -5 0 -7
4 -4 10 3 5 1 10 -4 10 -6 0 -11 7 -11 16 0 10 -6 13 -18 10 -17 -6 -18 0 -16
51 2 49 0 54 -8 30 -8 -22 -13 -26 -24 -16 -12 10 -14 3 -14 -42 0 -30 -3
-229 -7 -444 -8 -518 12 -801 73 -1035 8 -30 22 -91 30 -135 15 -80 20 -93 88
-237 20 -43 36 -81 36 -84 0 -4 10 -21 23 -38 13 -17 45 -67 72 -111 27 -44
59 -92 72 -108 12 -15 20 -34 17 -42 -4 -8 -1 -15 5 -15 6 0 11 -9 11 -20 0
-11 5 -20 10 -20 6 0 10 -6 10 -14 0 -8 7 -22 16 -30 8 -9 13 -16 10 -16 -6 0
15 -28 42 -55 6 -8 12 -19 12 -25 0 -6 16 -26 35 -45 19 -20 35 -39 35 -43 0
-6 58 -78 88 -108 6 -7 12 -16 12 -20 0 -11 258 -262 282 -275 19 -10 33 -21
102 -81 17 -15 37 -28 44 -28 6 0 12 -4 12 -10 0 -12 121 -130 134 -130 6 0
20 -10 31 -23 11 -13 27 -26 35 -30 16 -8 41 -24 110 -72 23 -16 50 -34 59
-40 9 -5 31 -20 48 -32 17 -13 35 -23 40 -23 4 0 35 -22 69 -48 33 -26 79 -56
102 -67 23 -11 42 -26 42 -33 0 -7 14 -15 30 -19 17 -3 30 -10 30 -15 0 -5 4
-7 9 -3 5 3 18 -8 28 -25 12 -21 24 -30 35 -26 10 2 16 0 13 -4 -6 -10 47 -50
65 -50 7 0 10 -8 7 -19 -3 -14 -1 -18 10 -14 7 3 22 -2 32 -11 10 -9 22 -16
27 -15 22 4 33 -2 28 -15 -3 -8 3 -16 15 -19 12 -3 21 -13 21 -22 0 -11 6 -15
18 -11 12 4 26 -1 37 -14 10 -11 24 -20 30 -20 7 0 20 -11 29 -25 9 -14 21
-25 26 -25 5 0 24 -13 42 -30 l32 -30 3211 0 c1765 0 3205 4 3199 8 -18 12
-24 40 -8 46 8 3 14 14 14 25 0 11 5 23 10 26 6 4 8 11 5 16 -4 5 -1 9 4 9 6
0 10 8 9 18 -2 25 24 82 39 82 9 0 10 7 3 25 -7 19 -6 25 5 25 7 0 16 -10 19
-22 2 -13 3 -7 2 12 -2 19 -6 42 -10 51 -5 12 -1 18 18 23 24 6 37 26 18 26
-4 0 -8 12 -7 28 0 16 6 26 13 24 14 -2 35 45 27 58 -3 5 4 14 15 20 15 8 21
19 19 38 -2 15 3 36 10 47 9 15 11 16 7 2 -3 -10 0 -17 8 -17 18 0 26 22 19
50 -5 20 -3 21 18 15 13 -3 19 -3 13 2 -16 12 -5 76 12 69 8 -3 11 0 7 10 -3
9 1 14 12 14 13 0 16 8 13 33 -1 17 -7 35 -13 39 -5 4 0 8 12 8 19 0 22 5 20
39 -1 22 1 37 5 35 4 -3 10 8 13 23 3 15 12 41 20 56 8 16 15 37 15 48 0 10 6
19 13 19 8 0 22 9 31 19 16 18 16 19 -1 17 -12 0 -17 5 -15 16 1 9 -2 19 -7
23 -6 3 -4 13 6 25 9 10 20 17 25 14 7 -4 13 44 9 69 -1 4 3 16 8 26 7 12 6
22 -1 29 -9 9 -9 12 1 12 8 0 11 6 7 16 -4 9 -1 23 6 32 7 8 14 36 16 61 2 52
9 110 11 114 2 1 5 13 7 27 6 34 22 48 30 27 8 -21 24 -22 24 -2 0 8 -5 15
-11 15 -8 0 -8 5 1 15 9 10 9 15 1 15 -6 0 -11 -4 -11 -10 0 -5 -5 -10 -10
-10 -12 0 -3 49 11 65 14 14 11 23 -8 28 -17 4 -17 5 0 6 19 1 23 26 5 37 -8
5 -6 9 7 14 25 9 27 38 4 51 -16 8 -17 14 -8 30 14 27 20 99 8 99 -5 0 -9 5
-9 10 0 6 9 10 19 10 17 0 18 3 8 25 -7 14 -17 23 -24 21 -8 -3 -10 1 -6 11 4
11 2 14 -5 9 -19 -12 -14 -1 18 35 l29 34 -27 6 c-22 5 -24 7 -10 13 9 4 23 4
30 0 7 -4 5 2 -5 13 -10 12 -14 24 -9 27 19 11 10 54 -12 61 -20 6 -20 6 4 16
24 10 24 11 6 25 -18 13 -18 15 -2 33 16 17 16 19 0 25 -13 5 -14 9 -4 21 7 8
9 15 5 15 -4 0 -2 7 5 15 10 12 9 15 -8 15 -11 0 -22 7 -25 14 -4 10 -1 13 7
10 19 -7 26 8 31 67 4 36 1 49 -7 47 -7 -3 -15 -15 -19 -29 -6 -22 -7 -21 -8
7 -1 22 5 34 17 39 16 6 16 7 -1 20 -14 10 -15 14 -5 18 10 4 10 8 -2 16 -13
9 -12 11 4 11 13 0 16 5 12 16 -4 9 -1 23 5 30 9 11 7 14 -12 14 l-24 1 23 19
c17 14 21 25 16 45 -4 14 -1 31 6 40 10 12 9 16 -5 21 -10 4 -21 1 -26 -7 -7
-12 -9 -12 -9 1 0 8 9 21 20 28 27 17 26 35 -2 27 -16 -4 -19 -3 -10 3 8 5 15
33 16 66 2 31 6 59 10 63 11 11 7 23 -8 23 -9 0 -12 7 -9 20 3 11 9 20 14 20
15 0 10 30 -6 36 -11 5 -12 11 -4 25 12 23 3 59 -14 59 -8 0 -8 3 1 8 8 5 12
28 12 58 -1 27 -1 62 -1 78 0 16 -5 36 -11 44 -15 17 -20 139 -7 147 5 4 9 11
9 16 0 6 -4 8 -9 5 -11 -7 -23 22 -15 35 3 5 -2 9 -10 9 -9 0 -16 5 -16 11 0
6 7 9 15 5 20 -7 19 4 -2 20 -16 12 -16 13 -2 14 12 0 16 8 16 28 -1 15 -5 29
-9 32 -4 3 -8 17 -10 30 -2 14 -7 31 -12 38 -9 16 -17 62 -19 124 -1 26 -6 50
-10 54 -12 12 -8 54 6 54 8 1 7 5 -3 13 -9 7 -17 30 -18 52 -2 22 -8 43 -15
47 -9 6 -9 10 1 16 10 7 10 14 -3 38 -9 17 -15 56 -15 96 0 44 -4 68 -12 71
-10 3 -10 7 0 19 10 13 10 17 0 20 -9 4 -13 32 -14 104 0 54 -3 178 -7 274 -7
154 -13 326 -16 443 -1 20 -5 37 -11 37 -6 0 -10 -69 -10 -187z m-135 -814
c11 -17 2 -18 -19 -3 -17 12 -17 14 -4 14 9 0 20 -5 23 -11z m-1435 -39 c0 -5
-5 -10 -11 -10 -5 0 -7 5 -4 10 3 6 8 10 11 10 2 0 4 -4 4 -10z m475 -131 c11
-16 1 -19 -13 -3 -7 8 -8 14 -3 14 5 0 13 -5 16 -11z m452 5 c-3 -3 -12 -4
-19 -1 -8 3 -5 6 6 6 11 1 17 -2 13 -5z m-8087 -304 c0 -5 -4 -10 -10 -10 -5
0 -10 5 -10 10 0 6 5 10 10 10 6 0 10 -4 10 -10z m380 -70 c0 -5 -4 -10 -10
-10 -5 0 -10 5 -10 10 0 6 5 10 10 10 6 0 10 -4 10 -10z m245 -20 c3 -6 -1 -7
-9 -4 -18 7 -21 14 -7 14 6 0 13 -4 16 -10z m8059 -667 c-25 -440 -77 -650
-237 -968 -156 -310 -330 -536 -563 -734 -159 -135 -178 -148 -281 -210 -236
-139 -533 -253 -793 -305 -197 -39 -567 -66 -755 -55 -87 4 -92 5 -35 8 36 1
81 4 100 6 19 2 91 6 160 9 166 8 435 39 495 56 17 5 64 18 105 29 172 48 258
74 300 91 25 11 90 38 145 61 243 101 479 262 680 464 214 215 442 589 542
890 40 120 103 437 118 600 14 146 26 182 19 58z m237 -816 c-10 -9 -11 -8 -5
6 3 10 9 15 12 12 3 -3 0 -11 -7 -18z m-111 -1067 c0 -5 -5 -10 -11 -10 -5 0
-7 5 -4 10 3 6 8 10 11 10 2 0 4 -4 4 -10z m-7995 -80 c3 -6 -1 -7 -9 -4 -18
7 -21 14 -7 14 6 0 13 -4 16 -10z m145 -44 c39 -19 70 -38 70 -42 -1 -5 4 -10
11 -13 8 -2 9 1 4 10 -5 8 2 5 14 -6 13 -11 28 -20 34 -20 7 -1 19 -4 27 -8 8
-4 89 -27 180 -53 211 -59 229 -65 165 -58 -129 15 -369 88 -522 159 -90 42
-115 59 -71 47 14 -3 19 -2 14 6 -10 17 -5 16 74 -22z m653 -206 c21 0 36 -4
33 -9 -7 -11 -84 -3 -106 11 -11 7 -8 8 10 4 14 -3 42 -6 63 -6z m102 -20 c7
-12 -12 -12 -40 0 -18 8 -17 9 7 9 15 1 30 -3 33 -9z m6815 -250 c0 -5 -2 -10
-4 -10 -3 0 -8 5 -11 10 -3 6 -1 10 4 10 6 0 11 -4 11 -10z"/>
<path d="M1830 927 c0 -3 15 -10 32 -16 18 -6 28 -7 23 -2 -12 10 -55 25 -55
18z"/>
<path d="M7130 4837 c0 -12 45 -77 53 -77 4 0 -4 17 -20 38 -15 20 -28 39 -30
41 -2 2 -3 1 -3 -2z"/>
<path d="M7145 4738 c2 -9 8 -25 14 -36 6 -11 7 -23 3 -27 -4 -4 2 -5 13 -3
14 2 20 -3 20 -17 0 -11 8 -21 18 -23 19 -4 23 -22 5 -22 -8 -1 -6 -6 5 -14 9
-7 17 -18 17 -25 0 -16 19 -14 36 4 22 21 37 19 31 -5 -3 -11 -1 -18 4 -14 5
3 9 13 10 22 0 12 3 10 10 -6 5 -13 7 -27 4 -32 -3 -4 2 -10 10 -14 12 -4 13
-11 5 -31 -6 -15 -10 -42 -10 -61 0 -39 -7 -42 -43 -14 -14 11 -30 20 -36 20
-6 0 -11 4 -11 10 0 5 6 7 13 4 20 -7 38 18 27 36 -8 12 -10 11 -10 -5 -1 -18
-2 -18 -11 3 -5 13 -13 21 -18 17 -5 -3 -13 0 -17 6 -5 8 2 10 23 7 25 -3 29
-1 25 15 -3 11 -10 16 -20 12 -8 -3 -21 0 -30 7 -12 10 -16 10 -19 1 -3 -7
-11 -13 -18 -13 -16 0 -29 -35 -19 -51 4 -7 0 -9 -14 -5 -12 4 -22 1 -25 -7
-3 -9 -16 -12 -36 -9 -24 3 -30 1 -26 -10 4 -9 -6 -19 -30 -28 -19 -7 -35 -18
-35 -22 0 -5 9 -4 19 2 25 13 51 13 51 0 0 -5 -10 -11 -22 -11 -17 -1 -19 -2
-5 -6 9 -2 17 -9 17 -14 0 -5 -8 -10 -17 -11 -10 -1 -25 -2 -33 -4 -8 -1 -26
-2 -39 -3 -19 -1 -22 -5 -18 -22 3 -12 3 -18 0 -15 -4 3 -17 -4 -30 -16 -13
-12 -23 -16 -23 -10 0 7 -4 12 -10 12 -5 0 -7 -7 -4 -15 4 -8 1 -15 -5 -15 -6
0 -11 6 -11 13 0 6 -7 3 -16 -8 -8 -11 -19 -20 -24 -20 -4 0 -12 -3 -16 -7
-14 -14 -24 -8 -25 15 l0 22 -9 -22 c-5 -13 -17 -23 -25 -23 -9 0 -13 -4 -10
-10 3 -5 3 -10 -2 -10 -15 0 -31 15 -36 35 -4 11 -5 5 -3 -12 2 -22 -2 -33
-11 -33 -7 0 -13 5 -13 11 0 7 -10 9 -25 5 -18 -5 -27 -2 -31 9 -9 23 -26 18
-19 -5 7 -21 -10 -29 -18 -7 -2 6 -8 9 -12 5 -4 -4 -2 -14 5 -23 11 -13 9 -15
-14 -15 -17 0 -25 4 -21 11 4 6 -2 13 -14 16 -12 3 -21 13 -22 22 0 12 -3 10
-9 -5 -10 -26 -42 -42 -33 -17 4 11 2 14 -5 9 -8 -5 -12 0 -12 14 0 16 -4 20
-19 15 -13 -4 -20 0 -24 15 -3 11 -10 20 -17 20 -6 0 -8 -4 -5 -10 3 -5 0 -7
-9 -4 -9 3 -12 12 -9 22 6 15 4 15 -14 -1 -19 -16 -20 -16 -19 5 1 25 -24 32
-32 9 -3 -10 0 -12 11 -8 11 4 14 2 11 -8 -6 -14 -28 -11 -51 8 -16 12 -6 30
13 23 16 -6 19 10 3 20 -6 3 -16 1 -22 -5 -16 -16 -27 -14 -21 4 4 8 1 15 -6
15 -6 0 -8 -4 -5 -10 3 -5 1 -10 -5 -10 -7 0 -10 7 -7 15 4 8 2 17 -3 20 -6 4
-10 1 -10 -6 0 -9 -4 -8 -17 1 -48 33 632 -629 692 -674 75 -57 100 -63 137
-30 58 50 170 116 218 129 30 8 58 21 62 30 5 8 14 15 19 15 6 0 7 -5 3 -12
-5 -8 5 -9 35 -5 24 3 44 7 46 9 2 1 1 182 -2 401 l-6 398 -36 15 c-20 9 -46
17 -58 17 -12 1 -21 5 -20 9 1 3 -18 21 -43 39 -50 37 -110 47 -105 17z m39
-10 c-3 -4 -11 -5 -19 -1 -21 7 -19 12 4 10 11 0 18 -5 15 -9z m16 -218 c0 -5
-4 -10 -10 -10 -5 0 -10 5 -10 10 0 6 5 10 10 10 6 0 10 -4 10 -10z m45 -30
c3 -5 1 -10 -4 -10 -6 0 -11 5 -11 10 0 6 2 10 4 10 3 0 8 -4 11 -10z m-65
-25 c0 -8 -4 -15 -10 -15 -5 0 -10 7 -10 15 0 8 5 15 10 15 6 0 10 -7 10 -15z
m160 -100 c0 -7 -7 -16 -16 -19 -23 -9 -27 -8 -20 9 3 8 -3 19 -12 25 -15 8
-15 11 -2 19 16 11 50 -12 50 -34z m-10 -95 c0 -5 -7 -10 -16 -10 -8 0 -12 5
-9 10 3 6 10 10 16 10 5 0 9 -4 9 -10z m-10 -180 c0 -5 -4 -10 -10 -10 -5 0
-10 5 -10 10 0 6 5 10 10 10 6 0 10 -4 10 -10z m15 -128 c-7 -8 -35 7 -35 18
0 6 7 6 20 -2 10 -7 17 -14 15 -16z"/>
<path d="M4365 4546 c-14 -18 -63 -64 -110 -101 -46 -37 -83 -73 -82 -79 1 -6
-3 -10 -9 -9 -19 3 -94 -67 -94 -87 0 -19 -31 -44 -44 -35 -3 3 -4 2 -2 -1 3
-3 -8 -17 -25 -31 -16 -14 -26 -29 -23 -34 3 -5 1 -8 -5 -7 -6 2 -39 -26 -74
-62 -35 -36 -105 -103 -157 -150 -152 -135 -466 -453 -475 -479 -5 -17 -1 -31
14 -50 36 -44 52 -91 61 -179 11 -102 20 -118 20 -34 0 33 5 64 10 67 7 4 10
-14 9 -53 -1 -32 1 -64 5 -71 4 -6 28 -11 54 -11 26 0 58 -3 72 -7 22 -6 18
-8 -25 -18 l-50 -11 60 -8 c33 -4 219 -34 414 -67 195 -32 375 -59 401 -59
l46 0 35 90 c18 50 55 121 82 158 26 37 52 79 58 94 9 22 36 40 132 87 67 33
155 69 194 80 40 11 76 22 81 24 4 3 9 52 10 109 2 56 5 110 7 118 9 35 26
224 31 355 6 148 12 167 56 170 15 1 38 -14 70 -48 48 -50 48 -51 49 -121 1
-39 5 -185 8 -325 l6 -255 55 -16 c31 -9 99 -37 153 -63 153 -72 240 -165 316
-337 52 -120 53 -121 70 -114 14 5 350 58 631 99 58 9 136 25 174 36 38 11 94
25 124 29 71 12 82 23 82 79 0 25 12 89 27 141 47 169 53 150 -85 276 -259
237 -515 478 -699 655 -106 103 -214 205 -242 228 l-50 42 -40 -53 c-63 -84
-134 -127 -288 -175 -85 -26 -96 -27 -318 -28 -219 0 -234 1 -325 27 -178 49
-272 104 -305 178 -10 22 -28 46 -41 55 -22 14 -24 13 -49 -19z"/>
<path d="M7140 4570 c0 -5 5 -10 10 -10 6 0 10 5 10 10 0 6 -4 10 -10 10 -5 0
-10 -4 -10 -10z"/>
<path d="M2752 4195 c-1 -181 2 -335 6 -340 4 -6 41 -21 82 -34 133 -41 294
-141 314 -195 7 -21 21 -14 21 12 0 9 7 17 15 17 42 0 95 59 69 76 -12 7 -11
9 1 10 8 1 20 1 26 0 6 -1 21 11 35 25 23 25 23 26 5 39 -10 8 -16 18 -13 22
9 14 -128 9 -145 -4 -8 -7 -18 -10 -21 -6 -4 3 -7 1 -7 -5 0 -7 -5 -12 -11
-12 -18 0 11 31 41 42 l25 11 -35 8 c-41 10 -60 5 -60 -14 0 -9 -9 -12 -31 -9
-22 3 -27 7 -18 13 11 7 11 11 -2 21 -9 7 -19 20 -22 28 -4 10 -6 7 -6 -7 -1
-25 -21 -32 -21 -8 0 8 -4 15 -10 15 -5 0 -10 -7 -10 -16 0 -8 -4 -13 -10 -9
-5 3 -6 13 -3 21 4 11 0 15 -13 12 -11 -2 -23 6 -31 22 -11 22 -18 21 -14 -2
0 -4 -8 -12 -19 -18 -14 -7 -20 -7 -20 0 0 5 5 10 10 10 6 0 10 7 10 16 0 13
-7 15 -29 11 -24 -5 -30 -2 -35 16 -3 13 -3 33 1 46 7 26 -16 48 -29 28 -5 -8
-8 -4 -8 10 0 12 5 25 10 28 6 3 10 12 10 18 0 8 -3 8 -9 -1 -12 -20 -27 30
-31 103 -14 323 -17 323 -18 0z m468 -385 c0 -5 -7 -10 -15 -10 -8 0 -15 5
-15 10 0 6 7 10 15 10 8 0 15 -4 15 -10z m97 -13 c13 5 13 3 4 -15 -18 -34
-30 -34 -29 0 1 18 3 28 5 21 2 -7 11 -9 20 -6z"/>
<path d="M9140 4100 c0 -5 7 -10 16 -10 8 0 12 5 9 10 -3 6 -10 10 -16 10 -5
0 -9 -4 -9 -10z"/>
<path d="M3185 3930 c-3 -5 1 -10 9 -10 9 0 16 5 16 10 0 6 -4 10 -9 10 -6 0
-13 -4 -16 -10z"/>
<path d="M3045 3900 c-3 -5 1 -10 9 -10 9 0 16 5 16 10 0 6 -4 10 -9 10 -6 0
-13 -4 -16 -10z"/>
<path d="M3146 3901 c-4 -7 -5 -15 -2 -18 9 -9 19 4 14 18 -4 11 -6 11 -12 0z"/>
<path d="M3364 3818 l-19 -23 23 19 c21 18 27 26 19 26 -2 0 -12 -10 -23 -22z"/>
<path d="M825 3780 c3 -5 11 -10 16 -10 6 0 7 5 4 10 -3 6 -11 10 -16 10 -6 0
-7 -4 -4 -10z"/>
<path d="M2180 3665 c-43 -44 -76 -63 -49 -27 13 15 12 16 -3 3 -10 -7 -18
-17 -18 -22 0 -21 29 -5 75 41 27 28 47 50 44 50 -3 0 -25 -20 -49 -45z"/>
<path d="M1116 3673 c-6 -14 -5 -15 5 -6 7 7 10 15 7 18 -3 3 -9 -2 -12 -12z"/>
<path d="M1205 3660 c-3 -5 -2 -10 4 -10 5 0 13 5 16 10 3 6 2 10 -4 10 -5 0
-13 -4 -16 -10z"/>
<path d="M2086 3595 c-7 -20 9 -28 23 -11 9 10 8 15 -3 19 -8 3 -17 -1 -20 -8z"/>
<path d="M2023 3576 c7 -14 15 -26 20 -26 13 0 7 17 -13 35 -19 17 -19 17 -7
-9z"/>
<path d="M9830 1495 c-10 -12 -10 -19 -2 -27 9 -9 12 -7 12 9 0 12 6 24 13 26
7 4 8 6 1 6 -6 1 -17 -6 -24 -14z"/>
<path d="M9818 1433 c7 -3 16 -2 19 1 4 3 -2 6 -13 5 -11 0 -14 -3 -6 -6z"/>
<path d="M9426 331 c-4 -6 -2 -11 3 -11 6 0 11 -8 12 -17 0 -10 3 -13 5 -6 8
18 -11 49 -20 34z"/>
<path d="M9328 33 c7 -3 16 -2 19 1 4 3 -2 6 -13 5 -11 0 -14 -3 -6 -6z"/>
<path d="M2865 10 c-3 -5 -1 -10 4 -10 6 0 11 5 11 10 0 6 -2 10 -4 10 -3 0
-8 -4 -11 -10z"/>
</g>
</svg>
